<svg width="48" height="48" viewBox="0 0 48 48" fill="none" xmlns="http://www.w3.org/2000/svg">
<path fill-rule="evenodd" clip-rule="evenodd" d="M0.5 24C0.5 11.0213 11.0213 0.5 24 0.5C36.9787 0.5 47.5 11.0213 47.5 24C47.5 36.9787 36.9787 47.5 24 47.5C11.0213 47.5 0.5 36.9787 0.5 24ZM24 2.5C12.1259 2.5 2.5 12.1259 2.5 24C2.5 35.8741 12.1259 45.5 24 45.5C35.8741 45.5 45.5 35.8741 45.5 24C45.5 12.1259 35.8741 2.5 24 2.5Z" fill="#8292A1"/>
<path d="M26.2906 26.39H20.7106V29.51H28.6906V30.83H20.7106V35H19.0906V30.83H16.3906V29.51H19.0906V26.39H16.3906V24.89H19.0906V14H26.2906C27.9906 14 29.4506 14.61 30.6706 15.83C31.8906 17.05 32.5006 18.51 32.5006 20.21C32.5006 21.91 31.8906 23.37 30.6706 24.59C29.4506 25.79 27.9906 26.39 26.2906 26.39ZM26.2906 15.5H20.7106V24.89H26.2906C27.5706 24.89 28.6606 24.44 29.5606 23.54C30.4606 22.62 30.9106 21.51 30.9106 20.21C30.9106 18.91 30.4606 17.8 29.5606 16.88C28.6606 15.96 27.5706 15.5 26.2906 15.5Z" fill="#8292A1"/>
</svg>
