<svg width="27" height="27" viewBox="0 0 27 27" fill="none" xmlns="http://www.w3.org/2000/svg">
<path d="M11.25 20.25C13.0568 20.2496 14.8165 19.7023 16.3003 18.6869C16.5682 18.5035 16.9317 18.5236 17.1613 18.7531L20.9092 22.5011C21.3485 22.9404 22.0607 22.9404 22.5 22.5011C22.9393 22.0619 22.9393 21.3496 22.5 20.9104L18.7521 17.1625C18.5225 16.9329 18.5025 16.5693 18.6859 16.3014C19.7019 14.8174 20.2496 13.0573 20.25 11.25C20.25 6.28763 16.2124 2.25 11.25 2.25C6.28763 2.25 2.25 6.28763 2.25 11.25C2.25 16.2124 6.28763 20.25 11.25 20.25ZM11.25 4.5C14.9726 4.5 18 7.52738 18 11.25C18 14.9726 14.9726 18 11.25 18C7.52738 18 4.5 14.9726 4.5 11.25C4.5 7.52738 7.52738 4.5 11.25 4.5Z" fill="#ACAFB5"/>
<path d="M12.8386 9.65947C12.9924 9.81375 13.1214 9.9859 13.2234 10.1711C13.5234 10.7157 14.0042 11.2502 14.626 11.2502C15.2471 11.2502 15.7649 10.7396 15.6115 10.1377C15.5585 9.93008 15.4907 9.72606 15.4081 9.52726C15.1814 8.98118 14.8488 8.48545 14.4293 8.06872C12.9954 6.63675 10.6758 6.41027 8.96242 7.38927C8.42318 7.69739 8.42605 8.42497 8.86458 8.86475C9.30348 9.30489 10.025 9.27178 10.6243 9.10686C11.3898 8.8962 12.2589 9.08136 12.8386 9.65947Z" fill="#ACAFB5"/>
</svg>
