<svg width="64" height="64" viewBox="0 0 64 64" fill="none" xmlns="http://www.w3.org/2000/svg">
<g clip-path="url(#clip0_252_577)">
<path d="M39.7942 55.017C38.0573 55.052 36.4466 55.4081 35.0896 55.9857C34.5597 54.9581 33.7144 54.0245 32.6251 53.231C33.6737 50.6993 35.9685 47.2676 40.9479 45.2195C42.4381 45.8966 45.3791 46.5498 47.3431 42.556C47.5408 42.1592 47.3487 41.6742 46.9408 41.4962C45.382 40.812 41.7077 39.7354 40.2386 43.9213C35.0559 46.1068 32.562 49.6815 31.3733 52.4376C30.1354 51.7605 28.6873 51.2376 27.099 50.911C26.6631 50.161 26.3547 49.3115 26.2019 48.3918C25.6551 45.1115 27.2182 42.113 30.3822 40.3663C34.5821 38.0532 36.5657 35.7009 37.4783 33.8098C37.4797 33.8182 43.1082 23.2118 34.6901 18.2745C26.7304 13.612 22.7954 17.596 19.8641 10.7102C19.7015 10.326 19.1393 10.3653 19.0608 10.776C18.3964 14.2512 17.2553 23.3254 22.5276 26.8426C27.6177 30.2379 36.4774 26.9309 37.4629 32.8538C36.2896 31.3552 35.1457 31.2669 35.1457 31.2669C35.1527 31.3005 35.3265 34.2149 28.9635 37.7967C24.7439 40.1714 22.5528 44.3784 23.3014 48.8783C23.3968 49.4516 23.5369 50.0082 23.7164 50.5423C23.443 50.5367 23.1655 50.5367 22.8879 50.5423C19.7085 50.6054 16.8235 51.4184 14.624 52.7053C12.3642 50.4764 11.5483 46.1405 11.2918 44.2662C12.2633 42.9681 13.602 40.1728 10.0245 37.4C9.67266 37.1238 9.15959 37.2149 8.90165 37.5794C7.92456 38.9574 6.14842 42.305 9.8507 44.5858C10.1283 46.5905 10.9638 50.8184 13.267 53.3992C13.145 53.6109 13.145 53.6095 13.0217 53.824C12.1567 53.6922 11.2525 53.6235 10.3175 53.6432C4.5447 53.7609 -0.0743907 56.8576 -9.26773e-05 60.5599C0.0742053 64.2636 48.8964 63.7197 48.8319 60.5599C48.7646 57.4001 44.7203 54.9189 39.7942 55.017Z" fill="black"/>
<path d="M51.0708 19.3666V21.7063C51.0708 22.6329 51.8166 23.3829 52.7432 23.3829C53.6698 23.3829 54.4156 22.6329 54.4156 21.7063V19.3666C53.8591 19.4913 53.3194 19.5572 52.7432 19.5572C52.167 19.5572 51.5867 19.4913 51.0708 19.3666Z" fill="black"/>
<path d="M54.4171 4.87848V2.53739C54.4171 1.61217 53.6713 0.862183 52.7447 0.862183C51.8181 0.862183 51.0723 1.61217 51.0723 2.53739V4.87848C51.5867 4.75371 52.1685 4.68643 52.7447 4.68643C53.3208 4.68643 53.8605 4.75371 54.4171 4.87848Z" fill="black"/>
<path d="M59.0458 16.0568C58.4444 17.0156 57.6313 17.8287 56.6738 18.4273L58.3322 20.0843C58.6574 20.4123 59.0892 20.5763 59.5182 20.5763C59.9471 20.5763 60.3761 20.4137 60.7055 20.0843C61.3602 19.4296 61.3602 18.3684 60.7055 17.7137L59.0458 16.0568Z" fill="black"/>
<path d="M46.4322 8.1869C47.0336 7.22804 47.8466 6.41497 48.8027 5.81638L47.1457 4.15799C46.4897 3.50333 45.427 3.50333 44.7738 4.15799C44.1177 4.81405 44.1177 5.87666 44.7738 6.52992L46.4322 8.1869Z" fill="black"/>
<path d="M46.4322 16.0554L44.7738 17.7138C44.1177 18.3699 44.1177 19.4311 44.7738 20.0843C45.1004 20.4124 45.5294 20.5764 45.9626 20.5764C46.3915 20.5764 46.8177 20.4138 47.1485 20.0843L48.8055 18.4273C47.8466 17.8274 47.0336 17.0143 46.4322 16.0554Z" fill="black"/>
<path d="M59.0458 8.1869L60.7027 6.52992C61.3574 5.87525 61.3574 4.81265 60.7027 4.15799C60.0467 3.50333 58.9841 3.50333 58.3322 4.15799L56.6738 5.81638C57.6313 6.41637 58.4444 7.22944 59.0458 8.1869Z" fill="black"/>
<path d="M62.3222 10.4452H59.9839C60.1087 11.0017 60.1745 11.5414 60.1745 12.1176C60.1745 12.6938 60.1087 13.2769 59.9839 13.79H62.3222C63.2488 13.79 64.0002 13.0442 64.0002 12.1176C64.0002 11.191 63.2488 10.4452 62.3222 10.4452Z" fill="black"/>
<path d="M45.3037 12.1176C45.3037 11.5414 45.3696 11.0017 45.4943 10.4452H43.1546C42.228 10.4452 41.478 11.191 41.478 12.1176C41.478 13.0442 42.228 13.79 43.1546 13.79H45.4943C45.3696 13.2769 45.3037 12.6938 45.3037 12.1176Z" fill="black"/>
<path d="M52.7393 18.119C56.0514 18.119 58.7364 15.434 58.7364 12.1219C58.7364 8.80975 56.0514 6.12476 52.7393 6.12476C49.4272 6.12476 46.7422 8.80975 46.7422 12.1219C46.7422 15.434 49.4272 18.119 52.7393 18.119Z" fill="black"/>
</g>
<defs>
<clipPath id="clip0_252_577">
<rect width="64" height="64" fill="white"/>
</clipPath>
</defs>
</svg>
