<svg width="64" height="64" viewBox="0 0 64 64" fill="none" xmlns="http://www.w3.org/2000/svg">
<path d="M62.2251 55.2125L57.1126 23.3875C56.8876 21.9625 56.1751 20.65 55.1126 19.6875L51.1251 16.05C50.8626 15.8125 50.7126 15.4625 50.7126 15.1V10.2875H52.2251C53.6376 10.2875 54.7751 9.15 54.7751 7.7375C54.7751 6.325 53.6376 5.1875 52.2251 5.1875H36.4376C35.0251 5.1875 33.8876 6.325 33.8876 7.7375C33.8876 9.15 35.0251 10.2875 36.4376 10.2875H37.9501V15.1C37.9501 15.4625 37.8001 15.8 37.5376 16.05L33.5501 19.6875C32.4876 20.6625 31.7751 21.975 31.5501 23.3875L26.4376 55.2125C26.1376 57.0625 26.6626 58.9375 27.8876 60.3625C29.1001 61.7875 30.8751 62.6 32.7501 62.6H55.9376C57.8126 62.6 59.5876 61.7875 60.8001 60.3625C62.0001 58.9375 62.5251 57.05 62.2251 55.2125ZM36.5751 24.2C36.6251 23.9125 36.7626 23.65 36.9751 23.4625L40.9626 19.825C42.2876 18.6125 43.0501 16.9 43.0501 15.1125V10.2875H45.6126V15.1C45.6126 16.8875 46.3751 18.6125 47.7001 19.8125L51.6876 23.45C51.9001 23.65 52.0376 23.9125 52.0876 24.2L53.9876 36.025H34.6876L36.5751 24.2V24.2ZM55.9251 57.5H32.7376C32.2251 57.5 31.3626 57.1125 31.4751 56.0125L33.8626 41.125H54.8001L57.1876 56.0125C57.3001 57.075 56.4376 57.5 55.9251 57.5Z" fill="black"/>
<path d="M28.6376 3.89998C28.6376 2.48748 27.5001 1.34998 26.0876 1.34998H21.4751H8.8876H4.2751C2.8626 1.34998 1.7251 2.48748 1.7251 3.89998C1.7251 5.31248 2.8626 6.44998 4.2751 6.44998H6.3376V53.75C6.3376 58.625 10.3001 62.5875 15.1751 62.5875C20.0501 62.5875 24.0126 58.625 24.0126 53.75V6.46248H26.0751C27.5001 6.46248 28.6376 5.31248 28.6376 3.89998V3.89998ZM18.9126 53.7625C18.9126 55.825 17.2376 57.5 15.1751 57.5C13.1126 57.5 11.4376 55.825 11.4376 53.7625V6.46248H18.9126V53.7625Z" fill="black"/>
</svg>
