<svg width="64" height="64" viewBox="0 0 64 64" fill="none" xmlns="http://www.w3.org/2000/svg">
<path d="M36.3859 30.0274V28.6566C36.3859 26.5534 37.0857 24.4821 38.4097 22.6665C39.4028 21.3045 39.9277 19.6915 39.9277 18.0018C39.9277 15.8269 39.0647 13.7982 37.4975 12.2897C35.931 10.7815 33.8689 9.99768 31.6915 10.0796C27.7401 10.2299 24.2543 13.6938 24.0795 17.6435C23.9983 19.4797 24.5588 21.2962 25.6579 22.7584C26.9189 24.4363 27.6133 26.5308 27.6133 28.6559V30.0273C24.4065 31.6396 22.1997 34.9595 22.1997 38.7868V46.5616C22.1997 48.2051 23.2421 49.6097 24.7004 50.1492V60.9559C24.7004 62.6344 26.0659 63.9999 27.7443 63.9999H36.2549C37.9333 63.9999 39.2988 62.6344 39.2988 60.9559V50.1492C40.7571 49.6098 41.7993 48.2052 41.7993 46.5617V38.787C41.7996 34.9595 39.5927 31.6398 36.3859 30.0274ZM27.7729 21.1691C27.0308 20.1818 26.6677 19.0032 26.7227 17.7606C26.837 15.1757 29.206 12.8219 31.7922 12.7234C33.2426 12.6674 34.619 13.191 35.6627 14.1956C36.707 15.201 37.2821 16.5527 37.2821 18.0018C37.2821 19.1274 36.9329 20.2014 36.272 21.1077C34.6157 23.379 33.7402 25.9893 33.7402 28.6566V29.145C33.602 29.1201 33.4627 29.0978 33.3225 29.0789V23.7664L35.1837 20.5429C35.549 19.9101 35.3322 19.1011 34.6995 18.7359C34.0668 18.3704 33.2577 18.5875 32.8925 19.22L31.9997 20.7664L31.1068 19.22C30.7414 18.5873 29.9324 18.3705 29.2998 18.7359C28.6671 19.1011 28.4503 19.9101 28.8157 20.5429L30.6768 23.7664V29.0789C30.5366 29.098 30.3974 29.1201 30.2591 29.145V28.6562C30.2591 25.9613 29.3761 23.3024 27.7729 21.1691ZM39.154 46.5619C39.154 47.2036 38.6381 47.7272 37.9991 47.7395C37.2595 47.7537 36.6532 48.3229 36.6532 49.0626V60.9562C36.6532 61.1762 36.4749 61.3545 36.255 61.3545H33.7181C33.4996 61.3545 33.3226 61.1773 33.3226 60.959V50.787C33.3226 50.0824 32.791 49.4672 32.0879 49.4217C31.3175 49.3718 30.677 49.982 30.677 50.7416V60.959C30.677 61.1775 30.4999 61.3545 30.2815 61.3545H27.7445C27.5246 61.3545 27.3462 61.1762 27.3462 60.9562V49.0626C27.3462 48.3229 26.7399 47.7537 26.0004 47.7395C25.3616 47.7272 24.8455 47.2036 24.8455 46.5619V38.9071C24.8455 34.9896 27.9447 31.7084 31.8615 31.6342C35.8693 31.5582 39.154 34.7963 39.154 38.7871V46.5619Z" fill="black"/>
<path d="M31.9991 7.66435C32.7297 7.66435 33.3219 7.07214 33.3219 6.34152V1.32283C33.3219 0.592211 32.7297 0 31.9991 0C31.2685 0 30.6763 0.592211 30.6763 1.32283V6.34152C30.6763 7.07214 31.2685 7.66435 31.9991 7.66435Z" fill="black"/>
<path d="M40.3957 11.1443C40.7342 11.1443 41.0728 11.0151 41.331 10.757L44.8812 7.20675C45.3978 6.69015 45.3978 5.85259 44.8812 5.33599C44.3644 4.81925 43.5269 4.81939 43.0104 5.33599L39.4602 8.88619C38.9436 9.40279 38.9436 10.2404 39.4602 10.757C39.7186 11.0153 40.057 11.1443 40.3957 11.1443Z" fill="black"/>
<path d="M48.8928 16.8938H43.8741C43.1435 16.8938 42.5513 17.486 42.5513 18.2166C42.5513 18.9473 43.1435 19.5395 43.8741 19.5395H48.8928C49.6234 19.5395 50.2156 18.9473 50.2156 18.2166C50.2156 17.486 49.6234 16.8938 48.8928 16.8938Z" fill="black"/>
<path d="M41.331 25.6778C40.8144 25.1611 39.9768 25.1611 39.4602 25.6778C38.9436 26.1944 38.9436 27.032 39.4602 27.5486L43.0089 31.0973C43.2672 31.3556 43.6057 31.4848 43.9442 31.4848C44.2827 31.4848 44.6212 31.3556 44.8795 31.0973C45.3961 30.5807 45.3961 29.7431 44.8795 29.2265L41.331 25.6778Z" fill="black"/>
<path d="M24.5381 25.6777C24.0215 25.1611 23.184 25.1612 22.6674 25.6777L19.1188 29.2264C18.6022 29.743 18.6024 30.5805 19.1188 31.0971C19.3771 31.3554 19.7156 31.4845 20.0542 31.4845C20.3927 31.4845 20.7313 31.3553 20.9896 31.097L24.5381 27.5483C25.0549 27.0318 25.0547 26.1943 24.5381 25.6777Z" fill="black"/>
<path d="M21.4485 18.2166C21.4485 17.486 20.8563 16.8938 20.1257 16.8938H15.107C14.3764 16.8938 13.7842 17.486 13.7842 18.2166C13.7842 18.9473 14.3764 19.5395 15.107 19.5395H20.1257C20.8563 19.5395 21.4485 18.9471 21.4485 18.2166Z" fill="black"/>
<path d="M22.6674 10.7554C22.9257 11.0137 23.2642 11.1429 23.6029 11.1429C23.9414 11.1429 24.28 11.0137 24.5382 10.7555C25.0548 10.2389 25.0548 9.40138 24.5382 8.88478L20.9897 5.33611C20.4729 4.81937 19.6354 4.81951 19.1189 5.33611C18.6023 5.85271 18.6023 6.69027 19.1189 7.20687L22.6674 10.7554Z" fill="black"/>
</svg>
