<svg width="64" height="64" viewBox="0 0 64 64" fill="none" xmlns="http://www.w3.org/2000/svg">
<path d="M53.9552 0H10.0452C9.26555 0 8.6333 0.632125 8.6333 1.41188V62.5881C8.6333 63.3679 9.26555 64 10.0452 64H53.9552C54.7348 64 55.3671 63.3679 55.3671 62.5881V1.41188C55.3671 0.632125 54.7349 0 53.9552 0ZM42.979 61.1763H11.4571V2.82375H42.9792V61.1763H42.979ZM52.5433 61.1763H50.7304V46.964C50.7304 46.1843 50.0982 45.5521 49.3186 45.5521C48.5389 45.5521 47.9067 46.1843 47.9067 46.964V61.1763H45.8029V2.82375H47.9067V10.9026C47.9067 11.6824 48.5389 12.3145 49.3186 12.3145C50.0982 12.3145 50.7304 11.6824 50.7304 10.9026V2.82375H52.5433V61.1763Z" fill="black"/>
<path d="M32.1578 20.0591L27.6581 8.50543C27.6546 8.49631 27.6499 8.48793 27.6462 8.47893C27.6367 8.45593 27.6263 8.43331 27.6156 8.41093C27.6059 8.39056 27.5962 8.37043 27.5856 8.35081C27.5748 8.33081 27.5631 8.31118 27.5514 8.29156C27.5392 8.27106 27.5268 8.25056 27.5136 8.23093C27.5016 8.21306 27.4887 8.19581 27.4758 8.17843C27.4614 8.15893 27.4471 8.13931 27.4316 8.12068C27.4176 8.10381 27.4028 8.08756 27.3879 8.07118C27.3723 8.05381 27.3567 8.03656 27.3403 8.02006C27.3238 8.00356 27.3063 7.98781 27.2888 7.97206C27.2726 7.95743 27.2564 7.94256 27.2397 7.92868C27.2209 7.91331 27.2014 7.89893 27.1818 7.88431C27.1644 7.87143 27.1472 7.85856 27.1294 7.84656C27.1098 7.83331 27.0893 7.82118 27.0688 7.80881C27.0492 7.79693 27.0296 7.78531 27.0093 7.77456C26.9898 7.76406 26.9699 7.75456 26.9498 7.74493C26.9269 7.73406 26.9039 7.72343 26.8804 7.71368C26.8717 7.71006 26.8636 7.70568 26.8547 7.70206C26.8437 7.69781 26.8327 7.69493 26.8217 7.69106C26.7977 7.68231 26.7734 7.67431 26.7489 7.66681C26.7278 7.66043 26.7066 7.65456 26.6853 7.64918C26.6626 7.64343 26.6397 7.63843 26.6167 7.63381C26.5937 7.62918 26.5707 7.62506 26.5476 7.62168C26.5257 7.61843 26.5037 7.61593 26.4814 7.61381C26.4576 7.61143 26.4337 7.60943 26.4098 7.60831C26.3879 7.60718 26.3661 7.60706 26.3441 7.60693C26.3201 7.60693 26.2962 7.60718 26.2723 7.60831C26.2503 7.60943 26.2284 7.61131 26.2064 7.61343C26.1824 7.61581 26.1587 7.61856 26.1349 7.62206C26.1134 7.62531 26.0921 7.62906 26.0706 7.63331C26.0462 7.63806 26.0218 7.64343 25.9977 7.64956C25.9776 7.65468 25.9573 7.66031 25.9371 7.66631C25.9118 7.67393 25.8869 7.68231 25.8622 7.69118C25.8514 7.69518 25.8406 7.69781 25.8298 7.70193C25.8211 7.70531 25.8131 7.70968 25.8044 7.71331C25.7807 7.72306 25.7574 7.73381 25.7343 7.74481C25.7144 7.75431 25.6947 7.76393 25.6754 7.77418C25.6551 7.78506 25.6353 7.79681 25.6156 7.80868C25.5951 7.82093 25.5748 7.83331 25.5552 7.84643C25.5374 7.85831 25.5202 7.87118 25.5029 7.88393C25.4833 7.89843 25.4636 7.91306 25.4448 7.92856C25.4282 7.94231 25.4122 7.95693 25.3962 7.97131C25.3786 7.98731 25.3607 8.00318 25.3441 8.02006C25.3279 8.03618 25.3127 8.05306 25.2974 8.07006C25.2823 8.08681 25.2669 8.10343 25.2527 8.12081C25.2377 8.13906 25.2237 8.15806 25.2096 8.17706C25.1963 8.19493 25.1831 8.21281 25.1706 8.23131C25.1577 8.25043 25.1458 8.27031 25.1339 8.29006C25.1218 8.31043 25.1097 8.33056 25.0984 8.35143C25.0883 8.37031 25.0789 8.38968 25.0697 8.40918C25.0586 8.43268 25.0477 8.45618 25.0378 8.48018C25.0343 8.48881 25.0299 8.49668 25.0266 8.50531L20.5254 20.0589C20.2423 20.7856 20.6018 21.6039 21.3286 21.8871C21.4968 21.9527 21.6702 21.9838 21.8407 21.9838C22.4057 21.9838 22.9392 21.6423 23.1566 21.0841L23.7522 19.5549H28.9306L29.5261 21.0839C29.7434 21.6422 30.2769 21.9839 30.8419 21.9839C31.0123 21.9839 31.1857 21.9529 31.3541 21.8873C32.0811 21.6041 32.4407 20.7856 32.1578 20.0591ZM24.8526 16.7311L26.3421 12.9078L27.8312 16.7311H24.8526Z" fill="black"/>
<path d="M30.8634 29.0442C30.8634 26.8697 29.0938 25.1008 26.9186 25.1008H23.2322C22.4526 25.1008 21.8203 25.733 21.8203 26.5127V32.2888V38.065C21.8203 38.8447 22.4526 39.4768 23.2322 39.4768H26.9186C29.0937 39.4768 30.8634 37.7072 30.8634 35.532V34.8217C30.8634 33.8581 30.5157 32.9746 29.9398 32.2887C30.5157 31.603 30.8634 30.7193 30.8634 29.7557V29.0442ZM28.0397 35.5318C28.0397 36.15 27.5367 36.6528 26.9187 36.6528H24.6443V33.7006H26.9187C27.5368 33.7006 28.0397 34.2035 28.0397 34.8216V35.5318ZM28.0397 29.7557C28.0397 30.3738 27.5367 30.8767 26.9187 30.8767H24.6443V27.9245H26.9187C27.5368 27.9245 28.0397 28.4268 28.0397 29.0441V29.7557Z" fill="black"/>
<path d="M29.5267 50.9611C28.7471 50.9611 28.1149 51.5932 28.1149 52.373C28.1149 53.3509 27.32 54.1464 26.3427 54.1464C25.3649 54.1464 24.5694 53.3509 24.5694 52.373V47.1914C24.5694 46.2135 25.3649 45.418 26.3427 45.418C27.3199 45.418 28.1149 46.2135 28.1149 47.1914C28.1149 47.9711 28.7471 48.6032 29.5267 48.6032C30.3064 48.6032 30.9386 47.9711 30.9386 47.1914C30.9386 44.6565 28.8769 42.5942 26.3427 42.5942C23.808 42.5942 21.7456 44.6565 21.7456 47.1914V52.373C21.7456 54.9079 23.8079 56.9701 26.3427 56.9701C28.8769 56.9701 30.9386 54.9079 30.9386 52.373C30.9386 51.5932 30.3064 50.9611 29.5267 50.9611Z" fill="black"/>
<path d="M49.3186 37.7655C48.539 37.7655 47.9067 38.3976 47.9067 39.1774V41.603C47.9067 42.3828 48.539 43.0149 49.3186 43.0149C50.0982 43.0149 50.7305 42.3828 50.7305 41.603V39.1774C50.7305 38.3976 50.0984 37.7655 49.3186 37.7655Z" fill="black"/>
</svg>
