<svg width="64" height="64" viewBox="0 0 64 64" fill="none" xmlns="http://www.w3.org/2000/svg">
<g clip-path="url(#clip0_252_449)">
<path d="M44.2122 42.151L36.0528 33.9911C33.9293 36.0048 31.726 37.7748 29.5493 39.2393L36.7578 46.448C39.4357 45.5449 41.9748 44.1126 44.2122 42.151Z" fill="black"/>
<path d="M18.1973 27.8866L27.4374 37.1269C29.6078 35.7056 31.839 33.9392 33.9783 31.9162L23.417 21.3545C21.3132 23.5745 19.5719 25.7884 18.1973 27.8866Z" fill="black"/>
<path d="M15.2 40.133C15.7398 40.673 16.577 40.9465 17.6887 40.9465C19.6516 40.9465 22.1441 40.1255 24.8392 38.6768L16.6459 30.483C14.2245 34.9949 13.7211 38.6543 15.2 40.133Z" fill="black"/>
<path d="M50.5842 32.6227L43.3815 25.42C41.9065 27.6075 40.1302 29.8057 38.126 31.9164L46.2861 40.0769C48.2481 37.8397 49.6807 35.3008 50.5842 32.6227Z" fill="black"/>
<path d="M21.3424 19.2802L13.1822 11.1196C11.2204 13.3573 9.78809 15.8961 8.88477 18.5744L16.0872 25.7769C17.562 23.5891 19.3383 21.3913 21.3424 19.2802Z" fill="black"/>
<path d="M44.9712 22.8618L51.4223 29.3129C52.3627 23.8378 51.2249 18.0789 48.0089 13.3041C48.0559 15.1159 47.5792 17.2555 46.5757 19.6345C46.1309 20.6889 45.5922 21.7693 44.9712 22.8618Z" fill="black"/>
<path d="M42.0235 7.32054C37.2498 4.1074 31.4932 2.97026 26.02 3.91022L32.4782 10.3686C35.9107 8.41888 39.4038 7.32054 42.0235 7.32054Z" fill="black"/>
<path d="M33.4479 47.2856L26.9906 40.8279C23.5585 42.777 20.3079 43.8794 17.6888 43.8794C17.6072 43.8794 17.5274 43.8768 17.4473 43.8749C22.2199 47.0878 27.9758 48.2249 33.4479 47.2856Z" fill="black"/>
<path d="M12.8947 31.5613C13.3393 30.5071 13.8776 29.4273 14.498 28.3352L8.04733 21.8842C7.10737 27.3586 8.24601 33.1169 11.4617 37.8913C11.4145 36.0797 11.8912 33.9401 12.8947 31.5613Z" fill="black"/>
<path d="M29.9194 11.9574L22.7105 4.74805C20.0324 5.65137 17.4935 7.08394 15.2559 9.04553L23.4158 17.2059C25.5392 15.1919 27.7428 13.4219 29.9194 11.9574Z" fill="black"/>
<path d="M34.6294 12.5196L42.8233 20.7138C45.2456 16.2015 45.7492 12.5412 44.2703 11.0625C43.731 10.5227 42.8934 10.249 41.7817 10.249C39.8184 10.249 37.3254 11.0702 34.6294 12.5196Z" fill="black"/>
<path d="M41.2717 23.3103L32.0314 14.0697C29.861 15.4911 27.6296 17.2574 25.4902 19.2804L36.0517 29.8424C38.1556 27.6224 39.8969 25.4085 41.2717 23.3103Z" fill="black"/>
<path d="M50.9665 46.8295C62.2848 35.5112 62.6859 17.3522 52.1629 5.576L54.1625 3.5767C54.9807 2.75849 54.9807 1.43195 54.1625 0.613739C53.344 -0.204254 52.0179 -0.204254 51.1995 0.613739L47.7428 4.0706C46.9246 4.88859 46.9246 6.21514 47.7428 7.03335C57.8163 17.1068 58.0927 33.7778 48.0036 43.867C43.1161 48.7549 36.6206 51.4493 29.7138 51.4543C29.7073 51.4543 29.7013 51.4543 29.6951 51.4543C22.7964 51.4539 16.2273 48.2272 11.0984 43.6202C10.3123 42.9141 9.06874 43.0069 8.3044 43.7709L4.84754 47.2275C4.02933 48.0457 4.02933 49.3723 4.84754 50.1905C5.25676 50.5995 5.79289 50.8042 6.32902 50.8042C6.86516 50.8042 7.40129 50.5997 7.81051 50.1905L9.85183 48.1491C15.0173 52.7143 21.5054 55.3279 28.4144 55.6156V59.8103H21.2858C20.1289 59.8103 19.1909 60.7483 19.1909 61.9055C19.1909 63.0624 20.1289 64.0005 21.2858 64.0005H39.7336C40.8903 64.0005 41.8286 63.0627 41.8286 61.9055C41.8286 60.7485 40.8903 59.8103 39.7336 59.8103H32.6046V55.5048C39.5396 54.8426 45.9752 51.8211 50.9665 46.8295Z" fill="black"/>
</g>
<defs>
<clipPath id="clip0_252_449">
<rect width="64" height="64" fill="white"/>
</clipPath>
</defs>
</svg>
