<svg width="64" height="64" viewBox="0 0 64 64" fill="none" xmlns="http://www.w3.org/2000/svg">
<path d="M57.9413 27.3219V23.773L57.43 23.5705C57.2684 23.507 53.74 22.1427 48.8636 21.9177V23.5377C52.4002 23.7116 55.2127 24.5257 56.3213 24.8939V57.7939C54.0366 56.8755 51.4061 56.4112 48.4934 56.4112C41.3568 56.4112 34.5598 59.1481 32.5144 60.046V46.9752L33.4655 48.0246V38.6561H31.0294V48.0246L31.9805 46.9752V60.0624C29.9085 59.2053 22.776 56.493 15.6312 56.493C12.8065 56.493 10.3069 56.9266 8.17559 57.7816V24.8898C9.41922 24.4746 12.8065 23.4948 16.9812 23.4948C17.2799 23.4948 17.5703 23.5193 17.869 23.5295V21.9156C17.5703 21.9075 17.2799 21.8809 16.9812 21.8809C11.4156 21.8809 7.24491 23.5009 7.07309 23.5684L6.56173 23.7709V27.0581C4.87832 27.3731 3.83105 27.9397 3.83105 28.8581C3.83105 33.6487 3.83105 62.7359 3.83105 62.7359H28.7773C29.6405 63.505 30.9005 63.998 32.3139 63.998C33.7273 63.998 34.9894 63.507 35.8505 62.7359H60.1688C60.1688 62.7359 60.1688 30.5416 60.1688 28.8581C60.1688 28.1094 59.32 27.6226 57.9413 27.3219Z" fill="black"/>
<path d="M50.1237 11.8762H15.9014V14.0342H19.2498V31.5213H22.5961V14.0342H26.9161V31.5213H30.2604V14.0342H35.8752V31.5213H39.2215V14.0342H43.5394V31.5213H46.8838V14.0342H50.1237V11.8762Z" fill="black"/>
<path d="M33.2857 0L14.1792 10.876H52.067L33.2857 0Z" fill="black"/>
<path d="M50.1235 32.1698H48.7736H17.7993H16.2284V34.649H15.04V37.1363H51.5308V34.649H50.1235V33.4094V32.1698Z" fill="black"/>
</svg>
