<svg width="64" height="64" viewBox="0 0 64 64" fill="none" xmlns="http://www.w3.org/2000/svg">
<path d="M0 54.6481H21.9429V9.35181H0V54.6481ZM10.9714 41.6C9.14286 41.6 7.61469 40.1241 7.61469 38.2432C7.61469 36.4147 9.09061 34.8865 10.9714 34.8865C12.8 34.8865 14.3282 36.3624 14.3282 38.2432C14.2759 40.0718 12.8 41.6 10.9714 41.6ZM3.65714 14.5241H18.2335V19.3045H3.65714V14.5241ZM3.65714 23.7714H18.2335V28.5518H3.65714V23.7714Z" fill="black"/>
<path d="M25.9526 10.3575V38.7526H64V10.3575H25.9526ZM60.3951 34.7951H29.5575V14.3804H60.4343L60.3951 34.7951Z" fill="black"/>
<path d="M51.7485 41.391H38.1909V47.3338H51.7485V41.391Z" fill="black"/>
<path d="M56.2286 49.933H33.6719V53.6424H56.2286V49.933Z" fill="black"/>
<path d="M43.1803 31.2424H46.7852V26.4097H51.657V22.7526H46.7852V17.933H43.1803V22.7526H38.3477V26.4097H43.1803V31.2424Z" fill="black"/>
</svg>
