<svg width="64" height="64" viewBox="0 0 64 64" fill="none" xmlns="http://www.w3.org/2000/svg">
<g clip-path="url(#clip0_252_505)">
<path d="M60.1346 27.7821C65.2885 22.6281 65.2885 14.242 60.1346 9.08811C57.9435 6.89698 55.1186 5.57011 52.0735 5.27798C50.9861 3.34098 48.9191 2.08411 46.6133 2.08411H6.2615C2.80887 2.08411 0 4.89298 0 8.34561C0 11.7982 2.80887 14.6071 6.2615 14.6071H8.34863V55.6545C8.34863 59.1071 11.1575 61.916 14.6101 61.916H54.9619V57.7416C53.811 57.7416 52.8747 56.8054 52.8747 55.6545V35.0421L60.1346 27.7821ZM8.34863 10.4327H6.2615C5.11062 10.4327 4.17438 9.49661 4.17438 8.34561C4.17438 7.19461 5.11062 6.25848 6.2615 6.25848C7.41237 6.25848 8.34863 7.19473 8.34863 8.34561V10.4327ZM14.6101 57.7416C13.4592 57.7416 12.523 56.8054 12.523 55.6545V8.34561C12.523 7.61386 12.3957 6.91173 12.164 6.25848H45.6278C44.0828 6.91348 42.6627 7.86598 41.4405 9.08836L20.1674 30.3612V46.1037L14.8754 51.3956L17.827 54.3472L23.119 49.0552H38.8615L48.7004 39.2164V55.6544C48.7004 56.3859 48.8265 57.0884 49.058 57.7415H14.6101V57.7416ZM37.1321 44.881H27.2932L31.9739 40.2004L38.9806 40.2002L38.9805 36.026H36.1483L40.829 31.3452H47.8356V27.171H45.0034L52.2632 19.9111L49.3116 16.9595L24.3416 41.9294V32.0902L44.3921 12.04C46.1004 10.3319 48.3716 9.39098 50.7875 9.39098C53.2034 9.39098 55.4745 10.3319 57.1829 12.04C60.7094 15.5661 60.7094 21.3042 57.1829 24.8305L37.1321 44.881Z" fill="black"/>
</g>
<defs>
<clipPath id="clip0_252_505">
<rect width="64" height="64" fill="white"/>
</clipPath>
</defs>
</svg>
