<svg width="64" height="64" viewBox="0 0 64 64" fill="none" xmlns="http://www.w3.org/2000/svg">
<path d="M0 0V64H64V0H0ZM60.0412 30.0206H33.9794V3.95876H60.0412V30.0206ZM30.0206 3.95876V30.0206H3.95876V3.95876H30.0206ZM3.95876 33.9794H30.0206V60.0412H3.95876V33.9794ZM33.9794 60.0412V33.9794H60.0412V60.0412H33.9794Z" fill="black"/>
<path d="M25.4021 49.6495H8.57739V53.6083H25.4021V49.6495Z" fill="black"/>
<path d="M25.4021 40.4124H8.57739V44.3711H25.4021V40.4124Z" fill="black"/>
<path d="M39.6621 12.4408L44.211 16.9897L39.892 21.3087L42.6912 24.108L47.0102 19.789L51.5591 24.3378L54.3584 21.5386L49.8095 16.9897L54.1285 12.6707L51.3292 9.87147L47.0102 14.1905L42.4614 9.6416L39.6621 12.4408Z" fill="black"/>
<path d="M15.0104 25.0772H18.9691V18.9691H25.4021V15.0103H18.9691V8.90222H15.0104V15.0103H8.57739V18.9691H15.0104V25.0772Z" fill="black"/>
<path d="M55.4226 45.0309H38.5979V48.9896H55.4226V45.0309Z" fill="black"/>
</svg>
