<svg width="64" height="64" viewBox="0 0 64 64" fill="none" xmlns="http://www.w3.org/2000/svg">
<path d="M32.0001 38.5251C35.5916 38.5251 38.5031 35.6136 38.5031 32.022C38.5031 28.4305 35.5916 25.519 32.0001 25.519C28.4086 25.519 25.4971 28.4305 25.4971 32.022C25.4971 35.6136 28.4086 38.5251 32.0001 38.5251Z" fill="black"/>
<path d="M55.8538 35.2659C55.0289 34.1883 54.104 33.104 53.0913 32.0221C54.1041 30.9402 55.0289 29.8559 55.8538 28.7782C57.7929 26.2453 59.0989 23.8576 59.7359 21.6812C60.2483 19.9306 60.5719 17.3802 59.2042 15.1721C57.3552 12.1869 53.5819 11.5603 50.7422 11.5603C48.3545 11.5603 45.6276 11.9787 42.6952 12.7673C42.4059 11.8121 42.0941 10.8933 41.7598 10.0177C40.6223 7.03864 39.2765 4.66792 37.7595 2.98227C36.0102 1.03864 33.9999 0 31.9461 0H31.9329C29.3355 0 27.3412 1.63817 26.1256 2.99817C24.6143 4.68884 23.2771 7.06991 22.151 10.0544C21.8266 10.9141 21.5244 11.8152 21.2436 12.7511C18.3344 11.9732 15.6291 11.5607 13.2581 11.5607C10.4182 11.5607 6.64493 12.1876 4.79604 15.1728C3.42841 17.3809 3.75196 19.932 4.26438 21.6826C4.90135 23.859 6.20749 26.2484 8.14642 28.7812C8.97089 29.8581 9.89523 30.9421 10.9074 32.0235C9.89523 33.1047 8.97089 34.1886 8.14642 35.2655C6.20749 37.7984 4.90135 40.1861 4.26438 42.3626C3.75207 44.1132 3.4283 46.6635 4.79604 48.8716C6.64503 51.8568 10.4183 52.4835 13.2581 52.4835C15.6467 52.4835 18.3745 52.0646 21.3082 51.2756C21.5968 52.2268 21.9074 53.142 22.2405 54.0145C23.3779 56.9935 24.7239 59.3531 26.2407 61.0387C27.9899 62.9827 30 64 32.0538 64H32.0674C34.6648 64 36.659 62.3824 37.8747 61.0225C39.3861 59.3319 40.7233 56.9714 41.8492 53.9869C42.172 53.1311 42.473 52.2342 42.7529 51.3028C45.6633 52.0822 48.3701 52.4959 50.7422 52.4959C50.7425 52.4959 50.7425 52.4959 50.7428 52.4959C53.5824 52.4959 57.3554 51.863 59.2042 48.878C60.5718 46.6699 60.2483 44.1136 59.7359 42.3629C59.099 40.1865 57.7929 37.7988 55.8538 35.2659ZM50.7422 15.1968C52.3107 15.1968 55.0941 15.4423 56.1129 17.087C57.2642 18.9459 56.0881 22.4901 52.9665 26.5678C52.2337 27.525 51.4128 28.4896 50.5155 29.4539C48.8204 27.8693 46.9511 26.3069 44.9429 24.797C44.6662 21.8045 44.2213 18.9417 43.6207 16.2873C46.2802 15.5701 48.7 15.1968 50.7422 15.1968ZM40.1865 46.6909C40.1558 46.6801 40.1253 46.6696 40.0946 46.6587C38.7702 46.1894 37.417 45.6501 36.0497 45.0484C37.0318 44.4954 38.0136 43.9157 38.9917 43.3099C39.6721 42.8886 40.3423 42.4595 41.0019 42.0239C40.7837 43.6412 40.5109 45.2017 40.1865 46.6909ZM37.0768 40.2186C35.4031 41.2552 33.7009 42.2214 31.9981 43.1041C30.2966 42.2208 28.5958 41.2544 26.9233 40.2186C25.407 39.2794 23.9444 38.3027 22.5464 37.3C22.4264 35.584 22.3625 33.8265 22.3588 32.0424C22.355 30.2499 22.412 28.4837 22.5259 26.7589C23.9301 25.751 25.3995 24.7695 26.9234 23.8256C28.5961 22.7895 30.2972 21.8239 31.999 20.9416C33.7016 21.8244 35.4034 22.7905 37.077 23.827C38.5937 24.7664 40.0564 25.7432 41.4546 26.7461C41.5742 28.46 41.6379 30.215 41.6416 31.9962C41.6454 33.791 41.5883 35.559 41.4741 37.2853C40.0699 38.2933 38.6006 39.2748 37.0768 40.2186ZM23.8627 46.6677C23.5373 45.1959 23.2619 43.6544 23.0396 42.0575C23.686 42.4837 24.3425 42.9035 25.0085 43.3161C25.983 43.9197 26.9612 44.4973 27.9396 45.0486C26.5759 45.6475 25.2263 46.1848 23.9056 46.6528C23.8913 46.6577 23.877 46.6626 23.8627 46.6677ZM18.7606 34.3888C17.815 33.6077 16.9132 32.8173 16.0588 32.0221C16.9104 31.2292 17.8096 30.4412 18.752 29.6624C18.7309 30.4522 18.7206 31.2475 18.7224 32.0473C18.7241 32.8324 18.737 33.6133 18.7606 34.3888ZM23.8104 17.3589C23.8422 17.37 23.8738 17.3809 23.9056 17.3922C25.228 17.8608 26.5795 18.3989 27.9449 18.9989C26.9647 19.551 25.9847 20.1296 25.0085 20.7342C24.3279 21.1559 23.6572 21.5852 22.9971 22.0209C23.2148 20.4055 23.4869 18.8466 23.8104 17.3589ZM40.14 17.3756C40.4657 18.8501 40.7409 20.3945 40.9632 21.9945C40.316 21.5678 39.6587 21.1474 38.9918 20.7343C38.0152 20.1295 37.0349 19.5506 36.0543 18.9984C37.4201 18.3983 38.7719 17.8602 40.0948 17.3914C40.1097 17.386 40.1248 17.3809 40.14 17.3756ZM45.2399 29.6576C46.1848 30.4384 47.0862 31.2284 47.94 32.0232C47.0886 32.8157 46.1899 33.6033 45.2479 34.3818C45.2692 33.5902 45.2794 32.793 45.2777 31.9913C45.2761 31.2089 45.2634 30.4306 45.2399 29.6576ZM25.5533 11.3394C27.3661 6.53459 29.7537 3.66337 31.9459 3.65877C34.1321 3.65877 36.5308 6.52026 38.3626 11.3178C38.669 12.1205 38.955 12.9637 39.2209 13.841C36.8839 14.653 34.4573 15.6689 31.9998 16.8679C29.5212 15.6586 27.0742 14.6358 24.7187 13.8205C24.9773 12.9584 25.2552 12.1293 25.5533 11.3394ZM7.88739 17.087C8.90605 15.4423 11.6895 15.1968 13.2581 15.1968C15.287 15.1968 17.6886 15.5655 20.3279 16.2739C19.7333 18.938 19.2967 21.8124 19.0303 24.8174C17.0323 26.321 15.1722 27.8764 13.4849 29.4539C12.5875 28.4896 11.7667 27.525 11.0339 26.5678C7.91217 22.4902 6.73601 18.946 7.88739 17.087ZM13.2579 48.8474C11.6894 48.8474 8.90605 48.6018 7.88739 46.9572C6.73601 45.0983 7.91217 41.5539 11.0337 37.4762C11.7659 36.5197 12.5862 35.5559 13.4827 34.5923C15.1786 36.1784 17.049 37.7422 19.0586 39.2536C19.3358 42.2439 19.7808 45.1041 20.3817 47.7562C17.7213 48.4738 15.3008 48.8474 13.2579 48.8474ZM38.4469 52.6939C36.6341 57.4987 34.2464 60.3636 32.0597 60.3636H32.0546C29.8681 60.3636 27.4693 57.5095 25.6376 52.7122C25.3325 51.9133 25.0479 51.0743 24.783 50.2017C27.1166 49.3908 29.5393 48.3766 31.9929 47.1798C34.4721 48.3904 36.9198 49.4145 39.276 50.2312C39.019 51.0866 38.7428 51.9095 38.4469 52.6939ZM56.1129 46.9632C55.0942 48.6079 52.3112 48.8595 50.7428 48.8595C50.7427 48.8595 50.7425 48.8595 50.7424 48.8595C48.7127 48.8595 46.3103 48.4879 43.6701 47.7776C44.2654 45.1114 44.7027 42.2347 44.9695 39.2272C46.9671 37.7238 48.8269 36.1688 50.5141 34.5916C51.412 35.5565 52.2334 36.5216 52.9665 37.4793C56.0881 41.5569 57.2642 45.1042 56.1129 46.9632Z" fill="black"/>
</svg>
