<svg width="64" height="64" viewBox="0 0 64 64" fill="none" xmlns="http://www.w3.org/2000/svg">
<path d="M55.0696 55.0698H57.3021V0H13.3953C9.70213 0 6.69751 3.00463 6.69751 6.69763V57.3022C6.69751 60.9954 9.70213 63.9999 13.3951 63.9999H53.5811H55.0695H57.302V59.5348H55.0695C53.8384 59.5348 52.837 58.5332 52.837 57.3022C52.8371 56.0712 53.8385 55.0698 55.0696 55.0698ZM48.7545 59.5349H13.3953C12.1643 59.5349 11.1628 58.5334 11.1628 57.3024C11.1628 56.0714 12.1643 55.0699 13.3953 55.0699H48.7545C48.5069 55.7684 48.372 56.52 48.372 57.3024C48.372 58.0848 48.5069 58.8364 48.7545 59.5349ZM52.8371 50.6046H13.3953C12.6126 50.6046 11.8615 50.7407 11.1628 50.9886V6.69763C11.1628 5.46663 12.1643 4.46513 13.3953 4.46513H52.8371V50.6046V50.6046Z" fill="black"/>
<path d="M18.6047 11.907V28.2791H45.3955V11.907H18.6047ZM40.9304 23.814H23.0699V16.3721H40.9304V23.814Z" fill="black"/>
</svg>
