<svg width="64" height="64" viewBox="0 0 64 64" fill="none" xmlns="http://www.w3.org/2000/svg">
<path d="M30.4 0C26.0007 0 22.4 3.60067 22.4 8C22.4 9.80276 23.0209 11.4584 24.0375 12.8H24C19.6007 12.8 16 16.4007 16 20.8V33.6C16 37.4494 18.7636 40.6882 22.4 41.4375V59.2C22.4 61.851 24.549 64 27.2 64H33.6C36.251 64 38.4 61.851 38.4 59.2V41.4375H38.4063C42.0425 40.6882 44.8 37.4494 44.8 33.6V20.8C44.8 16.4007 41.1993 12.8 36.8 12.8H36.7625C37.7791 11.4584 38.4 9.80276 38.4 8C38.4 3.60067 34.7993 0 30.4 0ZM14.4 3.2C13.7124 3.2 13.0566 3.31605 12.4188 3.48125C12.3339 3.50431 12.2525 3.53046 12.1688 3.55625C11.5592 3.73587 10.9843 3.98169 10.4438 4.29375C8.04412 5.67901 6.4 8.2452 6.4 11.2C6.4 13.0028 7.02085 14.6584 8.0375 16H8C3.60068 16 0 19.6007 0 24V33.6C0 37.4494 2.75811 40.6882 6.39375 41.4375H6.4V52.8C6.4 55.451 8.54903 57.6 11.2 57.6H16H19.2V54.4H16V47.7125V43.2C16 42.3163 15.2837 41.6 14.4 41.6C13.5163 41.6 12.8 42.3163 12.8 43.2V54.4H11.2C10.3163 54.4 9.6 53.6837 9.6 52.8V27.2C9.6 26.3163 8.88365 25.6 8 25.6C7.11635 25.6 6.4 26.3163 6.4 27.2V38.1125C4.53183 37.4576 3.2 35.7046 3.2 33.6V24C3.2 21.3301 5.33008 19.2 8 19.2H8.0375C9.80481 19.2 11.2375 17.7673 11.2375 16C11.2357 15.3047 11.0094 14.6279 10.5 13.9438C9.99058 13.2596 9.6 12.2937 9.6 11.2C9.6 8.53008 11.7301 6.4 14.4 6.4C15.322 6.4 16.1692 6.66063 16.6563 6.95625C17.1433 7.25187 17.4314 7.33611 17.725 7.3375C18.6087 7.3375 19.325 6.62116 19.325 5.7375C19.3249 5.25283 19.0948 4.82422 18.8313 4.60625C18.5677 4.38828 18.4713 4.33951 18.3688 4.29375C17.1946 3.61158 15.8488 3.2 14.4 3.2ZM30.4 3.2C33.0699 3.2 35.2 5.33008 35.2 8C35.2 9.09367 34.8093 10.0596 34.3 10.7438C33.7907 11.4279 33.5643 12.1048 33.5625 12.8C33.5625 14.5673 34.9952 16 36.7625 16H36.8C39.4699 16 41.6 18.1301 41.6 20.8V33.6C41.6 35.7046 40.2682 37.4576 38.4 38.1125V24C38.4 23.1163 37.6837 22.4 36.8 22.4C35.9163 22.4 35.2 23.1163 35.2 24V59.2C35.2 60.0837 34.4837 60.8 33.6 60.8H32V43.2C32 42.3163 31.2837 41.6 30.4 41.6C29.5163 41.6 28.8 42.3163 28.8 43.2V60.8H27.2C26.3163 60.8 25.6 60.0837 25.6 59.2V24C25.6 23.1163 24.8837 22.4 24 22.4C23.1163 22.4 22.4 23.1163 22.4 24V38.1125C20.5318 37.4576 19.2 35.7046 19.2 33.6V20.8C19.2 18.1301 21.3301 16 24 16H24.0375C25.8048 16 27.2375 14.5673 27.2375 12.8C27.2357 12.1048 27.0092 11.4279 26.5 10.7438C25.9908 10.0596 25.6 9.09367 25.6 8C25.6 5.33008 27.7301 3.2 30.4 3.2ZM46.4 3.2C44.9512 3.2 43.6054 3.61158 42.4313 4.29375C42.3287 4.33951 42.2324 4.38828 41.9688 4.60625C41.7052 4.82422 41.4751 5.25283 41.475 5.7375C41.475 6.62116 42.1913 7.3375 43.075 7.3375C43.3686 7.33611 43.6567 7.25187 44.1438 6.95625C44.6308 6.66063 45.478 6.4 46.4 6.4C49.0699 6.4 51.2 8.53008 51.2 11.2C51.2 12.2937 50.8094 13.2596 50.3 13.9438C49.7906 14.6279 49.5643 15.3047 49.5625 16C49.5625 17.7673 50.9952 19.2 52.7625 19.2H52.8C55.4699 19.2 57.6 21.3301 57.6 24V33.6C57.6 35.7046 56.2682 37.4576 54.4 38.1125V27.2C54.4 26.3163 53.6837 25.6 52.8 25.6C51.9163 25.6 51.2 26.3163 51.2 27.2V52.8C51.2 53.6837 50.4837 54.4 49.6 54.4H48V43.2C48 42.3163 47.2837 41.6 46.4 41.6C45.5163 41.6 44.8 42.3163 44.8 43.2V47.7125V54.4H41.6V57.6H44.8H49.6C52.251 57.6 54.4 55.451 54.4 52.8V41.4375H54.4063C58.0419 40.6882 60.8 37.4494 60.8 33.6V24C60.8 19.6007 57.1993 16 52.8 16H52.7625C53.7792 14.6584 54.4 13.0028 54.4 11.2C54.4 8.2452 52.7559 5.67901 50.3563 4.29375C49.8157 3.98169 49.2408 3.73587 48.6313 3.55625C48.5475 3.53044 48.4661 3.50431 48.3813 3.48125C47.7434 3.31605 47.0876 3.2 46.4 3.2Z" fill="#222222"/>
</svg>
